<?xml version="1.0" standalone="no"?>
<!DOCTYPE svg PUBLIC "-//W3C//DTD SVG 20010904//EN"
 "http://www.w3.org/TR/2001/REC-SVG-20010904/DTD/svg10.dtd">
<svg version="1.0" xmlns="http://www.w3.org/2000/svg"
 width="512.000000pt" height="512.000000pt" viewBox="0 0 512.000000 512.000000"
 preserveAspectRatio="xMidYMid meet">
<metadata>
Created by potrace 1.14, written by Peter Selinger 2001-2017
</metadata>
<g transform="translate(0.000000,512.000000) scale(0.100000,-0.100000)"
fill="#000000" stroke="none">
<path d="M1810 5092 c-77 -34 -103 -45 -110 -47 -3 -1 -22 -9 -44 -18 -21 -9
-40 -17 -43 -17 -2 0 -28 -10 -56 -23 -29 -13 -105 -45 -169 -71 -124 -51
-152 -73 -172 -131 -13 -36 -6 -110 19 -225 3 -14 8 -43 11 -65 4 -39 3 -41
-58 -87 -142 -107 -311 -275 -406 -405 l-47 -65 -60 6 c-33 3 -71 9 -85 12
-14 3 -59 8 -100 11 -124 9 -144 -14 -251 -277 -27 -69 -56 -138 -64 -155 -7
-16 -32 -76 -54 -132 -69 -170 -60 -197 104 -318 l117 -86 -6 -42 c-17 -119
-21 -191 -21 -397 0 -211 5 -297 21 -397 l6 -40 -116 -87 c-66 -49 -123 -100
-132 -117 -15 -31 -17 -100 -2 -129 4 -8 57 -136 117 -284 61 -148 117 -279
126 -293 24 -36 75 -63 120 -63 22 0 92 8 156 18 l117 19 58 -76 c122 -157
357 -385 446 -432 17 -9 19 -18 14 -61 -4 -28 -9 -54 -12 -59 -2 -5 -7 -25 -9
-46 -2 -21 -8 -56 -12 -78 -5 -22 -8 -46 -7 -52 1 -7 2 -24 3 -38 3 -58 52
-89 311 -196 135 -55 265 -110 289 -121 25 -11 65 -22 90 -25 66 -6 109 27
206 158 56 76 86 108 100 108 11 0 69 -6 129 -13 104 -12 403 -13 456 -2 14 3
52 8 85 11 l60 6 84 -114 c98 -130 114 -145 174 -153 39 -6 72 6 346 119 315
130 353 152 368 211 9 40 8 57 -18 204 -12 68 -20 124 -18 126 153 116 325
277 417 391 31 39 63 76 70 83 6 8 17 22 23 33 5 11 13 18 17 15 4 -2 32 -7
62 -11 30 -3 71 -10 90 -14 19 -4 62 -9 95 -10 113 -4 128 16 260 339 42 102
80 194 85 205 82 177 72 216 -95 341 l-117 88 6 35 c15 88 21 202 21 411 0
204 -3 255 -21 386 l-6 41 117 87 c122 91 145 121 145 188 0 32 -222 584 -255
634 -9 14 -30 34 -48 45 -28 18 -43 20 -117 14 -47 -3 -118 -12 -158 -19 l-72
-13 -33 46 c-90 124 -269 308 -396 406 l-91 70 6 43 c3 24 7 54 10 65 49 253
40 273 -164 357 -70 29 -201 84 -292 122 -91 38 -184 72 -206 75 -68 9 -108
-21 -205 -153 l-84 -115 -65 6 c-36 4 -81 9 -100 12 -77 11 -322 9 -430 -3
-63 -7 -124 -13 -135 -13 -14 0 -45 34 -105 115 -118 160 -165 180 -290 126z"/>
</g>
</svg>
